<?xml version="1.0" encoding="UTF-8"?>
<svg width="14px" height="15px" viewBox="0 0 14 15" version="1.1" xmlns="http://www.w3.org/2000/svg" xmlns:xlink="http://www.w3.org/1999/xlink">
    <!-- Generator: Sketch 55.2 (78181) - https://sketchapp.com -->
    <title>Combined Shape</title>
    <desc>Created with Sketch.</desc>
    <g id="Symbols" stroke="none" stroke-width="1" fill="none" fill-rule="evenodd">
        <g id="icon/order/ascending" fill="#00FFD7">
            <path d="M4.75,14 C4.75,14.1887928 4.68550591,14.3509569 4.5823056,14.4758104 C4.52612896,14.5438047 4.44832028,14.6097617 4.35962659,14.6583164 C4.30865587,14.6859334 4.25463029,14.7077892 4.19878271,14.7233732 C4.13547358,14.740731 4.06881924,14.75 4,14.75 C3.79847284,14.75 3.61551025,14.6705156 3.4807515,14.5411862 C3.47706438,14.537655 3.47335694,14.5340171 3.46966991,14.5303301 L0.469669914,11.5303301 C-0.00280373181,11.0578564 0.331821362,10.25 1,10.25 L3.25,10.25 L3.25,1 C3.25,0.585786438 3.58578644,0.25 4,0.25 C4.41421356,0.25 4.75,0.585786438 4.75,1 L4.75,14 Z M7,4.25 C6.58578644,4.25 6.25,3.91421356 6.25,3.5 C6.25,3.08578644 6.58578644,2.75 7,2.75 L9.5,2.75 C9.91421356,2.75 10.25,3.08578644 10.25,3.5 C10.25,3.91421356 9.91421356,4.25 9.5,4.25 L7,4.25 Z M7,8.25 C6.58578644,8.25 6.25,7.91421356 6.25,7.5 C6.25,7.08578644 6.58578644,6.75 7,6.75 L11,6.75 C11.4142136,6.75 11.75,7.08578644 11.75,7.5 C11.75,7.91421356 11.4142136,8.25 11,8.25 L7,8.25 Z M7,12.25 C6.58578644,12.25 6.25,11.9142136 6.25,11.5 C6.25,11.0857864 6.58578644,10.75 7,10.75 L13,10.75 C13.4142136,10.75 13.75,11.0857864 13.75,11.5 C13.75,11.9142136 13.4142136,12.25 13,12.25 L7,12.25 Z" id="Combined-Shape"></path>
        </g>
    </g>
</svg>