<?xml version="1.0" encoding="UTF-8"?>
<svg width="25px" height="25px" viewBox="0 0 25 25" version="1.1" xmlns="http://www.w3.org/2000/svg" xmlns:xlink="http://www.w3.org/1999/xlink">
    <!-- Generator: Sketch 54.1 (76490) - https://sketchapp.com -->
    <title>icon/category/entertainment</title>
    <desc>Created with Sketch.</desc>
    <g id="icon/category/entertainment" stroke="none" stroke-width="1" fill="none" fill-rule="evenodd">
        <path d="M20,15.5 L18,15.5 L18,7.5 L4,7.5 L4,16.5 L7.3541756,16.5 C6.76376971,17.021103 6.32837763,17.7137757 6.12601749,18.5 L4,18.5 C2.8954305,18.5 2,17.6045695 2,16.5 L2,7.5 C2,6.3954305 2.8954305,5.5 4,5.5 L9.29289322,5.5 L6.64644661,2.85355339 C6.45118446,2.65829124 6.45118446,2.34170876 6.64644661,2.14644661 C6.84170876,1.95118446 7.15829124,1.95118446 7.35355339,2.14644661 L10.7071068,5.5 L11.2928932,5.5 L14.6464466,2.14644661 C14.8417088,1.95118446 15.1582912,1.95118446 15.3535534,2.14644661 C15.5488155,2.34170876 15.5488155,2.65829124 15.3535534,2.85355339 L12.7071068,5.5 L18,5.5 C19.1045695,5.5 20,6.3954305 20,7.5 L20,15.5 Z M13.6976196,16.5 C12.7814285,14.9563173 13.1167974,13.6218025 14.762079,12.68585 C15.273951,12.394661 15.5452979,12.0838136 15.6376702,11.7604488 C15.7570756,11.3424498 15.5836026,10.8393921 15.1923104,10.3179619 C14.9985203,10.0597201 14.8041984,9.86235194 14.6838972,9.75922717 L15.3347229,9 C15.5058814,9.14672076 15.7487492,9.39339566 15.9921487,9.71774637 C16.5523566,10.4642712 16.8234037,11.250286 16.599208,12.0351212 C16.4292617,12.6300474 15.9821056,13.1422968 15.256541,13.5550493 C13.9887871,14.2762373 13.8441605,15.1709071 14.9030578,16.5 L19,16.5 C19.0808989,16.5 19.16105,16.5032021 19.2403333,16.5094866 C19.3260678,16.5031991 19.4126603,16.5 19.5,16.5 C21.4329966,16.5 23,18.0670034 23,20 C23,21.9329966 21.4329966,23.5 19.5,23.5 C18.5463475,23.5 17.6817772,23.1185935 17.0505086,22.5 L12.9494914,22.5 C12.3182228,23.1185935 11.4536525,23.5 10.5,23.5 C8.56700338,23.5 7,21.9329966 7,20 C7,18.0670034 8.56700338,16.5 10.5,16.5 C10.5873397,16.5 10.6739322,16.5031991 10.7596667,16.5094866 C10.83895,16.5032021 10.9191011,16.5 11,16.5 L13.6976196,16.5 Z M19.75,19.5 C20.1642136,19.5 20.5,19.1642136 20.5,18.75 C20.5,18.3357864 20.1642136,18 19.75,18 C19.3357864,18 19,18.3357864 19,18.75 C19,19.1642136 19.3357864,19.5 19.75,19.5 Z M19.75,22.5 C20.1642136,22.5 20.5,22.1642136 20.5,21.75 C20.5,21.3357864 20.1642136,21 19.75,21 C19.3357864,21 19,21.3357864 19,21.75 C19,22.1642136 19.3357864,22.5 19.75,22.5 Z M18.25,21 C18.6642136,21 19,20.6642136 19,20.25 C19,19.8357864 18.6642136,19.5 18.25,19.5 C17.8357864,19.5 17.5,19.8357864 17.5,20.25 C17.5,20.6642136 17.8357864,21 18.25,21 Z M21.25,21 C21.6642136,21 22,20.6642136 22,20.25 C22,19.8357864 21.6642136,19.5 21.25,19.5 C20.8357864,19.5 20.5,19.8357864 20.5,20.25 C20.5,20.6642136 20.8357864,21 21.25,21 Z M10,19.5 L8.5,19.5 L8.5,20.5 L10,20.5 L10,22 L11,22 L11,20.5 L12.5,20.5 L12.5,19.5 L11,19.5 L11,18 L10,18 L10,19.5 Z" id="Combined-Shape" fill="#587575"></path>
    </g>
</svg>