<?xml version="1.0" encoding="UTF-8"?>
<svg width="25px" height="25px" viewBox="0 0 25 25" version="1.1" xmlns="http://www.w3.org/2000/svg" xmlns:xlink="http://www.w3.org/1999/xlink">
    <!-- Generator: Sketch 54.1 (76490) - https://sketchapp.com -->
    <title>icon/category/food</title>
    <desc>Created with Sketch.</desc>
    <g id="icon/category/food" stroke="none" stroke-width="1" fill="none" fill-rule="evenodd">
        <path d="M17.6381743,11.150798 C17.5902729,11.1546334 17.544165,11.1581316 17.5,11.161313 L17.5,24 C17.5,24.2761424 17.2761424,24.5 17,24.5 C16.7238576,24.5 16.5,24.2761424 16.5,24 L16.5,10.6877111 C16.5,10.4169186 16.7155734,10.1953391 16.9862637,10.1878998 C17.0976996,10.1848372 17.2985438,10.1747911 17.5583622,10.1539881 C17.991168,10.1193344 18.4234341,10.0665395 18.8233893,9.99245305 C19.6882453,9.83224986 20.2567421,9.5828927 20.3259202,9.3920175 C20.3812134,9.23966364 20.4402853,7.99367401 20.4706199,6.29344986 C20.483469,5.5732695 20.4917342,4.8011762 20.4963264,4.02901684 C20.497934,3.75870908 20.4989673,3.50772444 20.4995413,3.28252296 C20.5000002,3.05101896 20.5000002,3.05101896 20.5,3 C20.5,2.72385763 20.7238576,2.5 21,2.5 C21.2761424,2.5 21.5,2.72385763 21.5,3 C21.4999998,3.05218008 21.4999998,3.05218008 21.4995381,3.28507174 C21.4989613,3.51136606 21.4979233,3.76347672 21.4963087,4.03496391 C21.4916947,4.81079012 21.4833889,5.58668238 21.4704608,6.31128854 C21.4352992,8.2820624 21.3816151,9.41440862 21.2660032,9.73296291 C21.0244734,10.3993894 20.2258841,10.749671 19.0055277,10.975726 C18.5679072,11.0567894 18.1027709,11.1135989 17.6381743,11.150798 Z M16,3 C16,2.72385763 16.2238576,2.5 16.5,2.5 C16.7761424,2.5 17,2.72385763 17,3 L17,8 C17,8.27614237 16.7761424,8.5 16.5,8.5 C16.2238576,8.5 16,8.27614237 16,8 L16,3 Z M18,3 C18,2.72385763 18.2238576,2.5 18.5,2.5 C18.7761424,2.5 19,2.72385763 19,3 L19,8 C19,8.27614237 18.7761424,8.5 18.5,8.5 C18.2238576,8.5 18,8.27614237 18,8 L18,3 Z M9.5,7 L9.5,4.33851648 L4.81430466,2.46423835 C4.5579129,2.36168164 4.43320495,2.07069642 4.53576165,1.81430466 C4.63831836,1.5579129 4.92930358,1.43320495 5.18569534,1.53576165 L10.1856953,3.53576165 C10.3755245,3.61169333 10.5,3.79554771 10.5,4 L10.5,7 L13,7 L13,24 L6.95375968,24 L5.20808145,9.94460351 L3,9.94460351 L3,7 L9.5,7 Z" id="Combined-Shape" fill="#FF7031"></path>
    </g>
</svg>