<?xml version="1.0" encoding="UTF-8"?>
<svg width="25px" height="25px" viewBox="0 0 25 25" version="1.1" xmlns="http://www.w3.org/2000/svg" xmlns:xlink="http://www.w3.org/1999/xlink">
    <!-- Generator: Sketch 54.1 (76490) - https://sketchapp.com -->
    <title>icon/category/financial</title>
    <desc>Created with Sketch.</desc>
    <g id="icon/category/financial" stroke="none" stroke-width="1" fill="none" fill-rule="evenodd">
        <path d="M13,13.846426 C12.4042738,14.5627603 11.9595699,15.4091486 11.7147552,16.336724 C11.6468344,16.2579561 11.5667692,16.179786 11.4745438,16.102796 C10.4676223,16.6665979 9.05111873,17 7.5,17 C5.94888127,17 4.53237766,16.6665979 3.52545618,16.102796 C3.17486303,16.3954723 3,16.7052017 3,17 C3,17.3462444 3.23244803,17.6900565 3.63947545,17.9924402 L3.77669506,18.0837824 C4.07254946,18.2807222 4.43185544,18.4516049 4.83792164,18.5906968 C5.57903826,18.8431956 6.49662614,19 7.5,19 C8.50337386,19 9.42096174,18.8431956 10.1620784,18.5906968 C10.5681446,18.4516049 10.9274505,18.2807222 11.2233049,18.0837824 L11.3605245,17.9924402 C11.4099884,17.9556931 11.4568741,17.9183342 11.5010777,17.8804334 C11.5003602,17.9202028 11.5,17.9600593 11.5,18 C11.5,18.4211008 11.5400437,18.832849 11.6165311,19.2316442 C11.5729268,19.188399 11.5255986,19.1454167 11.4745438,19.102796 C10.4676223,19.6665979 9.05111873,20 7.5,20 C5.94888127,20 4.53237766,19.6665979 3.52545618,19.102796 C3.17486303,19.3954723 3,19.7052017 3,20 C3,21.0103559 4.97928824,22 7.5,22 C9.74400776,22 11.5589343,21.2157015 11.9303511,20.3306965 C12.0685704,20.6904228 12.2378487,21.0347471 12.4349019,21.3603855 C11.5316594,22.3627305 9.64448236,23 7.5,23 C4.49786427,23 2,21.7510679 2,20 L2,5 C2,3.24893213 4.49786427,2 7.5,2 C10.5021357,2 13,3.24893213 13,5 L13,6.24108993 C14.0014394,5.4714254 15.6555479,5 17.5,5 C20.5021357,5 23,6.24893213 23,8 L23,13.846426 C22.4469391,13.1813948 21.7637132,12.6284559 20.989424,12.2267108 C21.0711869,12.1807613 21.1492345,12.1330885 21.2233049,12.0837824 L21.3605245,11.9924402 C21.767552,11.6900565 22,11.3462444 22,11 C22,10.7052017 21.825137,10.3954723 21.4745438,10.102796 C20.4676223,10.6665979 19.0511187,11 17.5,11 C15.9488813,11 14.5323777,10.6665979 13.5254562,10.102796 C13.174863,10.3954723 13,10.7052017 13,11 C13,11.3462444 13.232448,11.6900565 13.6394755,11.9924402 L13.7766951,12.0837824 C14.0021874,12.2338847 14.2645394,12.3688502 14.5563608,12.4861403 C14.2341605,12.6877934 13.9309024,12.9169037 13.6498639,13.1701938 C13.6077343,13.1481108 13.566259,13.1256425 13.5254562,13.102796 C13.2451283,13.3368146 13.0771501,13.5817359 13.0210784,13.8212094 C13.0140314,13.8295969 13.0070053,13.8380024 13,13.846426 Z M18,23.5 C14.9624339,23.5 12.5,21.0375661 12.5,18 C12.5,14.9624339 14.9624339,12.5 18,12.5 C21.0375661,12.5 23.5,14.9624339 23.5,18 C23.5,21.0375661 21.0375661,23.5 18,23.5 Z M19.2370062,19.70347 C19.2370062,19.9905377 19.1339234,20.2208193 18.9277547,20.3943218 C18.7215859,20.5678242 18.4209999,20.6545741 18.0259875,20.6545741 C17.6240451,20.6545741 17.3130642,20.5457424 17.0930353,20.3280757 C16.8730065,20.110409 16.7629938,19.8028411 16.7629938,19.4053628 L15.5,19.4053628 C15.5,20.0299716 15.6845096,20.5315438 16.0535343,20.9100946 C16.422559,21.2886454 16.9501005,21.5126179 17.6361746,21.5820189 L17.6361746,22.5 L18.462578,22.5 L18.462578,21.5772871 C19.1036068,21.5173499 19.6034286,21.3217682 19.9620582,20.9905363 C20.3206879,20.6593043 20.5,20.227132 20.5,19.6940063 C20.5,19.4100932 20.4532229,19.1624616 20.3596674,18.9511041 C20.2661118,18.7397466 20.1327105,18.5528399 19.9594595,18.3903785 C19.7862084,18.2279172 19.5731128,18.0835968 19.3201663,17.9574132 C19.0672198,17.8312297 18.7189904,17.6940071 18.2754678,17.5457413 C17.8319451,17.3974756 17.5174992,17.2405371 17.3321206,17.0749211 C17.146742,16.9093052 17.0540541,16.6892758 17.0540541,16.4148265 C17.0540541,16.1088313 17.1476082,15.8738179 17.3347193,15.7097792 C17.5218305,15.5457405 17.7817031,15.4637224 18.1143451,15.4637224 C18.4504521,15.4637224 18.7163885,15.5780746 18.9121622,15.8067823 C19.1079358,16.0354901 19.2058212,16.3485785 19.2058212,16.7460568 L20.4636175,16.7460568 C20.4636175,16.1277572 20.2990314,15.6253963 19.9698545,15.238959 C19.6406775,14.8525217 19.1746392,14.6198742 18.5717256,14.5410095 L18.5717256,13.5 L17.7401247,13.5 L17.7401247,14.5315457 C17.1406761,14.5946375 16.6659754,14.794951 16.3160083,15.1324921 C15.9660412,15.4700332 15.7910603,15.9006283 15.7910603,16.4242902 C15.7910603,17.1971647 16.1947292,17.7807551 17.002079,18.1750789 C17.2446305,18.2949533 17.5841974,18.4250782 18.02079,18.5654574 C18.4573826,18.7058367 18.7692298,18.8635638 18.956341,19.0386435 C19.1434521,19.2137233 19.2370062,19.4353299 19.2370062,19.70347 Z M3.63947545,14.9924402 L3.77669506,15.0837824 C4.07254946,15.2807222 4.43185544,15.4516049 4.83792164,15.5906968 C5.57903826,15.8431956 6.49662614,16 7.5,16 C8.50337386,16 9.42096174,15.8431956 10.1620784,15.5906968 C10.5681446,15.4516049 10.9274505,15.2807222 11.2233049,15.0837824 L11.3605245,14.9924402 C11.767552,14.6900565 12,14.3462444 12,14 C12,13.7052017 11.825137,13.3954723 11.4745438,13.102796 C10.4676223,13.6665979 9.05111873,14 7.5,14 C5.94888127,14 4.53237766,13.6665979 3.52545618,13.102796 C3.17486303,13.3954723 3,13.7052017 3,14 C3,14.3462444 3.23244803,14.6900565 3.63947545,14.9924402 Z M11.3605245,11.9924402 C11.767552,11.6900565 12,11.3462444 12,11 C12,10.7052017 11.825137,10.3954723 11.4745438,10.102796 C10.4676223,10.6665979 9.05111873,11 7.5,11 C5.94888127,11 4.53237766,10.6665979 3.52545618,10.102796 C3.17486303,10.3954723 3,10.7052017 3,11 C3,11.3462444 3.23244803,11.6900565 3.63947545,11.9924402 L3.77669506,12.0837824 C4.07254946,12.2807222 4.43185544,12.4516049 4.83792164,12.5906968 C5.57903826,12.8431956 6.49662614,13 7.5,13 C8.50337386,13 9.42096174,12.8431956 10.1620784,12.5906968 C10.5681446,12.4516049 10.9274505,12.2807222 11.2233049,12.0837824 L11.3605245,11.9924402 Z M3.63947545,8.99244021 L3.77669506,9.08378243 C4.07254946,9.28072219 4.43185544,9.45160492 4.83792164,9.5906968 C5.57903826,9.8431956 6.49662614,10 7.5,10 C8.50337386,10 9.42096174,9.8431956 10.1620784,9.5906968 C10.5681446,9.45160492 10.9274505,9.28072219 11.2233049,9.08378243 L11.3605245,8.99244021 C11.767552,8.69005645 12,8.34624442 12,8 C12,7.70520166 11.825137,7.39547227 11.4745438,7.102796 C10.4676223,7.66659794 9.05111873,8 7.5,8 C5.94888127,8 4.53237766,7.66659794 3.52545618,7.102796 C3.17486303,7.39547227 3,7.70520166 3,8 C3,8.34624442 3.23244803,8.69005645 3.63947545,8.99244021 Z M4.83792164,6.5906968 C5.57903826,6.8431956 6.49662614,7 7.5,7 C8.50337386,7 9.42096174,6.8431956 10.1620784,6.5906968 C10.5681446,6.45160492 10.9274505,6.28072219 11.2233049,6.08378243 L11.3605245,5.99244021 C11.767552,5.69005645 12,5.34624442 12,5 C12,3.98964412 10.0207118,3 7.5,3 C4.97928824,3 3,3.98964412 3,5 C3,5.34624442 3.23244803,5.69005645 3.63947545,5.99244021 L3.77669506,6.08378243 C4.07254946,6.28072219 4.43185544,6.45160492 4.83792164,6.5906968 Z M14.8379216,9.5906968 C15.5790383,9.8431956 16.4966261,10 17.5,10 C18.5033739,10 19.4209617,9.8431956 20.1620784,9.5906968 C20.5681446,9.45160492 20.9274505,9.28072219 21.2233049,9.08378243 L21.3605245,8.99244021 C21.767552,8.69005645 22,8.34624442 22,8 C22,6.98964412 20.0207118,6 17.5,6 C14.9792882,6 13,6.98964412 13,8 C13,8.34624442 13.232448,8.69005645 13.6394755,8.99244021 L13.7766951,9.08378243 C14.0725495,9.28072219 14.4318554,9.45160492 14.8379216,9.5906968 Z" id="Combined-Shape" fill="#5F9296"></path>
    </g>
</svg>