<?xml version="1.0" encoding="UTF-8"?>
<svg width="25px" height="25px" viewBox="0 0 25 25" version="1.1" xmlns="http://www.w3.org/2000/svg" xmlns:xlink="http://www.w3.org/1999/xlink">
    <!-- Generator: Sketch 54.1 (76490) - https://sketchapp.com -->
    <title>icon/category/home</title>
    <desc>Created with Sketch.</desc>
    <g id="icon/category/home" stroke="none" stroke-width="1" fill="none" fill-rule="evenodd">
        <path d="M4.33718053,10.8305146 L1.01864803,10.8305146 C0.846855463,10.8305146 0.70988255,10.7518477 0.622874528,10.6375165 C0.4521847,10.4387629 0.44353643,10.1121274 0.687813556,9.91687085 L8.60115506,3.59154922 L12.3880554,0.546370132 C12.5734051,0.397323917 12.8380942,0.399473114 13.0209992,0.55150945 L22.5670538,8.48648578 L24.3169507,9.92072714 C24.426273,10.0103293 24.4836267,10.1263102 24.497588,10.2446771 C24.5445994,10.526487 24.3405386,10.8305146 24.0032937,10.8305146 L21.0144358,10.8305146 L21.0144358,24 C21.0144358,24.2761424 20.7905781,24.5 20.5144358,24.5 L14.7838954,24.5 C14.5077531,24.5 14.2838954,24.2761424 14.2838954,24 L14.2838954,18.5155782 L10.7161046,18.5155782 L10.7161046,24 C10.7161046,24.2761424 10.4922469,24.5 10.2161046,24.5 L4.83718053,24.5 C4.56103816,24.5 4.33718053,24.2761424 4.33718053,24 L4.33718053,10.8305146 Z M20.0144358,10.5703932 L12.5215235,4.64364439 L5.33718053,10.6135231 L5.33718053,23.5 L9.71610456,23.5 L9.71610456,18.0155782 C9.71610456,17.7394358 9.93996219,17.5155782 10.2161046,17.5155782 L14.7838954,17.5155782 C15.0600378,17.5155782 15.2838954,17.7394358 15.2838954,18.0155782 L15.2838954,23.5 L20.0144358,23.5 L20.0144358,10.5703932 Z" id="Combined-Shape" fill="#04ADA0" fill-rule="nonzero"></path>
    </g>
</svg>