<?xml version="1.0" encoding="UTF-8"?>
<svg width="25px" height="25px" viewBox="0 0 25 25" version="1.1" xmlns="http://www.w3.org/2000/svg" xmlns:xlink="http://www.w3.org/1999/xlink">
    <!-- Generator: Sketch 54.1 (76490) - https://sketchapp.com -->
    <title>icon/category/others</title>
    <desc>Created with Sketch.</desc>
    <g id="icon/category/others" stroke="none" stroke-width="1" fill="none" fill-rule="evenodd">
        <path d="M13,14 C11.8954305,14 11,13.1045695 11,12 C11,10.8954305 11.8954305,10 13,10 C14.1045695,10 15,10.8954305 15,12 C15,13.1045695 14.1045695,14 13,14 Z M21,14 C19.8954305,14 19,13.1045695 19,12 C19,10.8954305 19.8954305,10 21,10 C22.1045695,10 23,10.8954305 23,12 C23,13.1045695 22.1045695,14 21,14 Z M5,14 C3.8954305,14 3,13.1045695 3,12 C3,10.8954305 3.8954305,10 5,10 C6.1045695,10 7,10.8954305 7,12 C7,13.1045695 6.1045695,14 5,14 Z" id="Combined-Shape" fill="#3F5150"></path>
    </g>
</svg>