<?xml version="1.0" encoding="UTF-8"?>
<svg width="25px" height="25px" viewBox="0 0 25 25" version="1.1" xmlns="http://www.w3.org/2000/svg" xmlns:xlink="http://www.w3.org/1999/xlink">
    <!-- Generator: Sketch 54.1 (76490) - https://sketchapp.com -->
    <title>icon/category/shopping</title>
    <desc>Created with Sketch.</desc>
    <g id="icon/category/shopping" stroke="none" stroke-width="1" fill="none" fill-rule="evenodd">
        <path d="M21.242135,21.766392 C21.2840253,20.5313856 20.3588631,19.4817641 19.1609031,19.4051455 C17.8960209,19.3231689 16.8114712,20.3315342 16.7731569,21.6238706 C16.7379078,22.801547 17.7320357,23.9342166 18.8738014,24.0183363 C20.0906631,24.107814 21.1987122,23.0539062 21.242135,21.766392 M11.7831046,21.766392 C11.8249949,20.5313856 10.8998326,19.4817641 9.70187266,19.4051455 C8.43750129,19.3231689 7.35295162,20.3315342 7.31412648,21.6238706 C7.27887734,22.801547 8.27351615,23.9342166 9.41528181,24.0183363 C10.6316326,24.107814 11.7396817,23.0539062 11.7831046,21.766392 M18.1999809,18.3951728 L10.5529606,18.3951728 C11.0822086,18.9207872 11.7953651,19.4571175 12.2852771,20.1632947 C12.8375137,20.9584138 12.8048188,21.9442757 12.4794028,22.8663781 C12.0078817,24.2010423 10.673012,25.0984981 9.38616296,24.9913392 C7.98437102,24.8740002 6.78896536,23.8190208 6.50799394,22.4511374 C6.15243738,20.7183779 6.84260535,19.4989095 8.84261098,18.3989234 C8.54375957,18.3807063 8.30263501,18.3769558 8.06406473,18.3501661 C7.07044763,18.2392566 6.47734251,17.6616701 6.2035231,16.519892 C5.35550028,12.9895418 4.51360774,9.45758431 3.66762835,5.92723418 C3.60836892,5.6807687 3.53582721,5.43698219 3.45919864,5.15354689 C2.70874953,5.15354689 1.98946271,5.16319119 1.27068674,5.15033212 C0.589714195,5.13854464 0.0124456481,5.18462297 0.00018507722,4.58185413 C-0.0115646366,3.96676201 0.537606768,4.04873857 1.2282856,4.02248464 C1.99865813,3.99301594 3.54144664,4.02569941 3.54144664,4.02569941 C3.54144664,4.02569941 4.24081004,3.89764452 4.43851174,4.21322749 C5.3897277,8.21132624 6.35575852,12.2056744 7.27989905,16.2107385 C7.41680876,16.8033273 7.60327161,17.3739484 8.22140872,17.3685905 C12.3026463,17.3364428 16.3849055,17.3589462 20.4666539,17.335907 C20.7409842,17.3348354 21.2053533,16.8204727 21.2584824,16.6286582 C22.0314093,13.8468131 23.0756012,10.3641486 23.8337132,7.46603606 L22.815575,7.46603606 C18.0533649,7.46603606 13.2911548,7.44031792 8.52945557,7.48961102 C7.68143275,7.49871952 7.5021219,6.97631986 7.5021219,6.97631986 C7.4627859,6.571795 7.5021219,6.29211025 7.51744761,6.3660499 L25,6.3660499 C24.585184,7.97718404 24.1770092,9.57331593 23.7637258,11.168912 C23.3473772,12.7757598 22.9197898,14.378857 22.5085498,15.9873122 C22.0094424,17.9397474 21.6314081,18.2821202 19.9777636,18.3962444 C20.4947511,18.8929259 21.1997339,19.4110392 21.699863,20.0936414 C22.2531213,20.8496475 22.2628275,21.802826 21.985943,22.7152841 C21.5619316,24.1126362 20.1744436,25.1027845 18.8390631,24.9913392 C17.3463386,24.8659633 16.1013798,23.6915017 15.9128735,22.23039 C15.6926941,20.5201339 16.5003592,19.1994004 18.1999809,18.3951728" id="Fill-24" fill="#1F6D6B"></path>
    </g>
</svg>