<?xml version="1.0" encoding="UTF-8"?>
<svg width="25px" height="25px" viewBox="0 0 25 25" version="1.1" xmlns="http://www.w3.org/2000/svg" xmlns:xlink="http://www.w3.org/1999/xlink">
    <!-- Generator: Sketch 54.1 (76490) - https://sketchapp.com -->
    <title>icon/category/transport</title>
    <desc>Created with Sketch.</desc>
    <g id="icon/category/transport" stroke="none" stroke-width="1" fill="none" fill-rule="evenodd">
        <path d="M21,6 L23,6 L23,9 L21,9 L21,19.424 C21,20.642222 20.1465254,21.6633984 19,21.9313601 L19,24.3440661 C19,24.705941 18.7264518,25 18.388102,25 L16.6113669,25 C16.2740793,25 16,24.705941 16,24.3440661 L16,22 L10,22 L10,24.2112837 C10,24.6472432 9.67121105,25 9.26540368,25 L7.73459632,25 C7.32878895,25 7,24.6472432 7,24.2112837 L7,21.9312832 C5.85331152,21.6632033 5,20.6421056 5,19.424 L5,9 L3,9 L3,6 L5,6 L5,3.576 C5,2.15318519 6.16337006,1 7.5987511,1 L18.401772,1 C19.8366299,1 21,2.15318519 21,3.576 L21,6 Z M19.7311917,13 L19.7311917,6 L6.47311917,6 L6.47311917,13 L19.7311917,13 Z M19.7311917,14 L6.47311917,14 L6.47311917,18.9855927 C6.47311917,20.0606479 7.29864717,20.9352357 8.31339732,20.9352357 L17.8913773,20.9352357 C18.9061274,20.9352357 19.7311917,20.0606479 19.7311917,18.9855927 L19.7311917,14 Z M19.7311917,5 L19.7311917,3.96823157 C19.7311917,2.8931764 18.9061274,2.01858856 17.8913773,2.01858856 L8.31339732,2.01858856 C7.29864717,2.01858856 6.47311917,2.8931764 6.47311917,3.96823157 L6.47311917,5 L19.7311917,5 Z M10,5 L10,3 L16,3 L16,5 L10,5 Z M7,20 L7,18 L9,18 L9,20 L7,20 Z M17,20 L17,18 L19,18 L19,20 L17,20 Z" id="Combined-Shape" fill="#00FFD8"></path>
    </g>
</svg>